<mxfile host="Electron" modified="2023-07-01T22:19:44.493Z" agent="Mozilla/5.0 (Windows NT 10.0; Win64; x64) AppleWebKit/537.36 (KHTML, like Gecko) draw.io/21.5.0 Chrome/112.0.5615.204 Electron/24.5.1 Safari/537.36" etag="sKg-eL4xIO5L87Z_Asxx" version="21.5.0" type="device" pages="3">
  <diagram id="C5RBs43oDa-KdzZeNtuy" name="Page-1">
    <mxGraphModel dx="1418" dy="828" grid="1" gridSize="10" guides="1" tooltips="1" connect="1" arrows="1" fold="1" page="1" pageScale="1" pageWidth="827" pageHeight="1169" math="0" shadow="0">
      <root>
        <mxCell id="WIyWlLk6GJQsqaUBKTNV-0" />
        <mxCell id="WIyWlLk6GJQsqaUBKTNV-1" parent="WIyWlLk6GJQsqaUBKTNV-0" />
        <mxCell id="5gYpoRD8Gp5rQAhavgbv-185" style="edgeStyle=orthogonalEdgeStyle;rounded=0;orthogonalLoop=1;jettySize=auto;html=1;entryX=0.5;entryY=0;entryDx=0;entryDy=0;endArrow=ERzeroToMany;endFill=0;startArrow=ERzeroToOne;startFill=0;" parent="WIyWlLk6GJQsqaUBKTNV-1" source="5gYpoRD8Gp5rQAhavgbv-3" target="5gYpoRD8Gp5rQAhavgbv-54" edge="1">
          <mxGeometry relative="1" as="geometry" />
        </mxCell>
        <mxCell id="5gYpoRD8Gp5rQAhavgbv-3" value="Usuario" style="shape=table;startSize=30;container=1;collapsible=1;childLayout=tableLayout;fixedRows=1;rowLines=0;fontStyle=1;align=center;resizeLast=1;" parent="WIyWlLk6GJQsqaUBKTNV-1" vertex="1">
          <mxGeometry x="150" y="190" width="180" height="150" as="geometry" />
        </mxCell>
        <mxCell id="5gYpoRD8Gp5rQAhavgbv-4" value="" style="shape=tableRow;horizontal=0;startSize=0;swimlaneHead=0;swimlaneBody=0;fillColor=none;collapsible=0;dropTarget=0;points=[[0,0.5],[1,0.5]];portConstraint=eastwest;top=0;left=0;right=0;bottom=1;" parent="5gYpoRD8Gp5rQAhavgbv-3" vertex="1">
          <mxGeometry y="30" width="180" height="30" as="geometry" />
        </mxCell>
        <mxCell id="5gYpoRD8Gp5rQAhavgbv-5" value="PK" style="shape=partialRectangle;connectable=0;fillColor=none;top=0;left=0;bottom=0;right=0;fontStyle=1;overflow=hidden;" parent="5gYpoRD8Gp5rQAhavgbv-4" vertex="1">
          <mxGeometry width="30" height="30" as="geometry">
            <mxRectangle width="30" height="30" as="alternateBounds" />
          </mxGeometry>
        </mxCell>
        <mxCell id="5gYpoRD8Gp5rQAhavgbv-6" value="Id" style="shape=partialRectangle;connectable=0;fillColor=none;top=0;left=0;bottom=0;right=0;align=left;spacingLeft=6;fontStyle=5;overflow=hidden;" parent="5gYpoRD8Gp5rQAhavgbv-4" vertex="1">
          <mxGeometry x="30" width="150" height="30" as="geometry">
            <mxRectangle width="150" height="30" as="alternateBounds" />
          </mxGeometry>
        </mxCell>
        <mxCell id="5gYpoRD8Gp5rQAhavgbv-7" value="" style="shape=tableRow;horizontal=0;startSize=0;swimlaneHead=0;swimlaneBody=0;fillColor=none;collapsible=0;dropTarget=0;points=[[0,0.5],[1,0.5]];portConstraint=eastwest;top=0;left=0;right=0;bottom=0;" parent="5gYpoRD8Gp5rQAhavgbv-3" vertex="1">
          <mxGeometry y="60" width="180" height="30" as="geometry" />
        </mxCell>
        <mxCell id="5gYpoRD8Gp5rQAhavgbv-8" value="" style="shape=partialRectangle;connectable=0;fillColor=none;top=0;left=0;bottom=0;right=0;editable=1;overflow=hidden;" parent="5gYpoRD8Gp5rQAhavgbv-7" vertex="1">
          <mxGeometry width="30" height="30" as="geometry">
            <mxRectangle width="30" height="30" as="alternateBounds" />
          </mxGeometry>
        </mxCell>
        <mxCell id="5gYpoRD8Gp5rQAhavgbv-9" value="IdentityId" style="shape=partialRectangle;connectable=0;fillColor=none;top=0;left=0;bottom=0;right=0;align=left;spacingLeft=6;overflow=hidden;fontStyle=1" parent="5gYpoRD8Gp5rQAhavgbv-7" vertex="1">
          <mxGeometry x="30" width="150" height="30" as="geometry">
            <mxRectangle width="150" height="30" as="alternateBounds" />
          </mxGeometry>
        </mxCell>
        <mxCell id="5gYpoRD8Gp5rQAhavgbv-10" value="" style="shape=tableRow;horizontal=0;startSize=0;swimlaneHead=0;swimlaneBody=0;fillColor=none;collapsible=0;dropTarget=0;points=[[0,0.5],[1,0.5]];portConstraint=eastwest;top=0;left=0;right=0;bottom=0;" parent="5gYpoRD8Gp5rQAhavgbv-3" vertex="1">
          <mxGeometry y="90" width="180" height="30" as="geometry" />
        </mxCell>
        <mxCell id="5gYpoRD8Gp5rQAhavgbv-11" value="" style="shape=partialRectangle;connectable=0;fillColor=none;top=0;left=0;bottom=0;right=0;editable=1;overflow=hidden;" parent="5gYpoRD8Gp5rQAhavgbv-10" vertex="1">
          <mxGeometry width="30" height="30" as="geometry">
            <mxRectangle width="30" height="30" as="alternateBounds" />
          </mxGeometry>
        </mxCell>
        <mxCell id="5gYpoRD8Gp5rQAhavgbv-12" value="Nome" style="shape=partialRectangle;connectable=0;fillColor=none;top=0;left=0;bottom=0;right=0;align=left;spacingLeft=6;overflow=hidden;" parent="5gYpoRD8Gp5rQAhavgbv-10" vertex="1">
          <mxGeometry x="30" width="150" height="30" as="geometry">
            <mxRectangle width="150" height="30" as="alternateBounds" />
          </mxGeometry>
        </mxCell>
        <mxCell id="5gYpoRD8Gp5rQAhavgbv-16" value="" style="shape=tableRow;horizontal=0;startSize=0;swimlaneHead=0;swimlaneBody=0;fillColor=none;collapsible=0;dropTarget=0;points=[[0,0.5],[1,0.5]];portConstraint=eastwest;top=0;left=0;right=0;bottom=0;" parent="5gYpoRD8Gp5rQAhavgbv-3" vertex="1">
          <mxGeometry y="120" width="180" height="30" as="geometry" />
        </mxCell>
        <mxCell id="5gYpoRD8Gp5rQAhavgbv-17" value="" style="shape=partialRectangle;connectable=0;fillColor=none;top=0;left=0;bottom=0;right=0;editable=1;overflow=hidden;" parent="5gYpoRD8Gp5rQAhavgbv-16" vertex="1">
          <mxGeometry width="30" height="30" as="geometry">
            <mxRectangle width="30" height="30" as="alternateBounds" />
          </mxGeometry>
        </mxCell>
        <mxCell id="5gYpoRD8Gp5rQAhavgbv-18" value="Status" style="shape=partialRectangle;connectable=0;fillColor=none;top=0;left=0;bottom=0;right=0;align=left;spacingLeft=6;overflow=hidden;" parent="5gYpoRD8Gp5rQAhavgbv-16" vertex="1">
          <mxGeometry x="30" width="150" height="30" as="geometry">
            <mxRectangle width="150" height="30" as="alternateBounds" />
          </mxGeometry>
        </mxCell>
        <mxCell id="5gYpoRD8Gp5rQAhavgbv-19" value="Premio" style="shape=table;startSize=30;container=1;collapsible=1;childLayout=tableLayout;fixedRows=1;rowLines=0;fontStyle=1;align=center;resizeLast=1;" parent="WIyWlLk6GJQsqaUBKTNV-1" vertex="1">
          <mxGeometry x="460" y="190" width="180" height="480" as="geometry" />
        </mxCell>
        <mxCell id="5gYpoRD8Gp5rQAhavgbv-20" value="" style="shape=tableRow;horizontal=0;startSize=0;swimlaneHead=0;swimlaneBody=0;fillColor=none;collapsible=0;dropTarget=0;points=[[0,0.5],[1,0.5]];portConstraint=eastwest;top=0;left=0;right=0;bottom=1;" parent="5gYpoRD8Gp5rQAhavgbv-19" vertex="1">
          <mxGeometry y="30" width="180" height="30" as="geometry" />
        </mxCell>
        <mxCell id="5gYpoRD8Gp5rQAhavgbv-21" value="PK" style="shape=partialRectangle;connectable=0;fillColor=none;top=0;left=0;bottom=0;right=0;fontStyle=1;overflow=hidden;" parent="5gYpoRD8Gp5rQAhavgbv-20" vertex="1">
          <mxGeometry width="30" height="30" as="geometry">
            <mxRectangle width="30" height="30" as="alternateBounds" />
          </mxGeometry>
        </mxCell>
        <mxCell id="5gYpoRD8Gp5rQAhavgbv-22" value="Id" style="shape=partialRectangle;connectable=0;fillColor=none;top=0;left=0;bottom=0;right=0;align=left;spacingLeft=6;fontStyle=5;overflow=hidden;" parent="5gYpoRD8Gp5rQAhavgbv-20" vertex="1">
          <mxGeometry x="30" width="150" height="30" as="geometry">
            <mxRectangle width="150" height="30" as="alternateBounds" />
          </mxGeometry>
        </mxCell>
        <mxCell id="5gYpoRD8Gp5rQAhavgbv-23" value="" style="shape=tableRow;horizontal=0;startSize=0;swimlaneHead=0;swimlaneBody=0;fillColor=none;collapsible=0;dropTarget=0;points=[[0,0.5],[1,0.5]];portConstraint=eastwest;top=0;left=0;right=0;bottom=0;" parent="5gYpoRD8Gp5rQAhavgbv-19" vertex="1">
          <mxGeometry y="60" width="180" height="30" as="geometry" />
        </mxCell>
        <mxCell id="5gYpoRD8Gp5rQAhavgbv-24" value="" style="shape=partialRectangle;connectable=0;fillColor=none;top=0;left=0;bottom=0;right=0;editable=1;overflow=hidden;" parent="5gYpoRD8Gp5rQAhavgbv-23" vertex="1">
          <mxGeometry width="30" height="30" as="geometry">
            <mxRectangle width="30" height="30" as="alternateBounds" />
          </mxGeometry>
        </mxCell>
        <mxCell id="5gYpoRD8Gp5rQAhavgbv-25" value="Codigo" style="shape=partialRectangle;connectable=0;fillColor=none;top=0;left=0;bottom=0;right=0;align=left;spacingLeft=6;overflow=hidden;fontStyle=1" parent="5gYpoRD8Gp5rQAhavgbv-23" vertex="1">
          <mxGeometry x="30" width="150" height="30" as="geometry">
            <mxRectangle width="150" height="30" as="alternateBounds" />
          </mxGeometry>
        </mxCell>
        <mxCell id="5gYpoRD8Gp5rQAhavgbv-26" value="" style="shape=tableRow;horizontal=0;startSize=0;swimlaneHead=0;swimlaneBody=0;fillColor=none;collapsible=0;dropTarget=0;points=[[0,0.5],[1,0.5]];portConstraint=eastwest;top=0;left=0;right=0;bottom=0;" parent="5gYpoRD8Gp5rQAhavgbv-19" vertex="1">
          <mxGeometry y="90" width="180" height="30" as="geometry" />
        </mxCell>
        <mxCell id="5gYpoRD8Gp5rQAhavgbv-27" value="" style="shape=partialRectangle;connectable=0;fillColor=none;top=0;left=0;bottom=0;right=0;editable=1;overflow=hidden;" parent="5gYpoRD8Gp5rQAhavgbv-26" vertex="1">
          <mxGeometry width="30" height="30" as="geometry">
            <mxRectangle width="30" height="30" as="alternateBounds" />
          </mxGeometry>
        </mxCell>
        <mxCell id="5gYpoRD8Gp5rQAhavgbv-28" value="DataEvento" style="shape=partialRectangle;connectable=0;fillColor=none;top=0;left=0;bottom=0;right=0;align=left;spacingLeft=6;overflow=hidden;" parent="5gYpoRD8Gp5rQAhavgbv-26" vertex="1">
          <mxGeometry x="30" width="150" height="30" as="geometry">
            <mxRectangle width="150" height="30" as="alternateBounds" />
          </mxGeometry>
        </mxCell>
        <mxCell id="5gYpoRD8Gp5rQAhavgbv-140" value="" style="shape=tableRow;horizontal=0;startSize=0;swimlaneHead=0;swimlaneBody=0;fillColor=none;collapsible=0;dropTarget=0;points=[[0,0.5],[1,0.5]];portConstraint=eastwest;top=0;left=0;right=0;bottom=0;" parent="5gYpoRD8Gp5rQAhavgbv-19" vertex="1">
          <mxGeometry y="120" width="180" height="30" as="geometry" />
        </mxCell>
        <mxCell id="5gYpoRD8Gp5rQAhavgbv-141" value="" style="shape=partialRectangle;connectable=0;fillColor=none;top=0;left=0;bottom=0;right=0;editable=1;overflow=hidden;" parent="5gYpoRD8Gp5rQAhavgbv-140" vertex="1">
          <mxGeometry width="30" height="30" as="geometry">
            <mxRectangle width="30" height="30" as="alternateBounds" />
          </mxGeometry>
        </mxCell>
        <mxCell id="5gYpoRD8Gp5rQAhavgbv-142" value="Status" style="shape=partialRectangle;connectable=0;fillColor=none;top=0;left=0;bottom=0;right=0;align=left;spacingLeft=6;overflow=hidden;" parent="5gYpoRD8Gp5rQAhavgbv-140" vertex="1">
          <mxGeometry x="30" width="150" height="30" as="geometry">
            <mxRectangle width="150" height="30" as="alternateBounds" />
          </mxGeometry>
        </mxCell>
        <mxCell id="5gYpoRD8Gp5rQAhavgbv-149" value="" style="shape=tableRow;horizontal=0;startSize=0;swimlaneHead=0;swimlaneBody=0;fillColor=none;collapsible=0;dropTarget=0;points=[[0,0.5],[1,0.5]];portConstraint=eastwest;top=0;left=0;right=0;bottom=0;" parent="5gYpoRD8Gp5rQAhavgbv-19" vertex="1">
          <mxGeometry y="150" width="180" height="30" as="geometry" />
        </mxCell>
        <mxCell id="5gYpoRD8Gp5rQAhavgbv-150" value="" style="shape=partialRectangle;connectable=0;fillColor=none;top=0;left=0;bottom=0;right=0;editable=1;overflow=hidden;" parent="5gYpoRD8Gp5rQAhavgbv-149" vertex="1">
          <mxGeometry width="30" height="30" as="geometry">
            <mxRectangle width="30" height="30" as="alternateBounds" />
          </mxGeometry>
        </mxCell>
        <mxCell id="5gYpoRD8Gp5rQAhavgbv-151" value="PrimeiroNumero" style="shape=partialRectangle;connectable=0;fillColor=none;top=0;left=0;bottom=0;right=0;align=left;spacingLeft=6;overflow=hidden;fontStyle=0" parent="5gYpoRD8Gp5rQAhavgbv-149" vertex="1">
          <mxGeometry x="30" width="150" height="30" as="geometry">
            <mxRectangle width="150" height="30" as="alternateBounds" />
          </mxGeometry>
        </mxCell>
        <mxCell id="5gYpoRD8Gp5rQAhavgbv-152" value="" style="shape=tableRow;horizontal=0;startSize=0;swimlaneHead=0;swimlaneBody=0;fillColor=none;collapsible=0;dropTarget=0;points=[[0,0.5],[1,0.5]];portConstraint=eastwest;top=0;left=0;right=0;bottom=0;" parent="5gYpoRD8Gp5rQAhavgbv-19" vertex="1">
          <mxGeometry y="180" width="180" height="30" as="geometry" />
        </mxCell>
        <mxCell id="5gYpoRD8Gp5rQAhavgbv-153" value="" style="shape=partialRectangle;connectable=0;fillColor=none;top=0;left=0;bottom=0;right=0;editable=1;overflow=hidden;" parent="5gYpoRD8Gp5rQAhavgbv-152" vertex="1">
          <mxGeometry width="30" height="30" as="geometry">
            <mxRectangle width="30" height="30" as="alternateBounds" />
          </mxGeometry>
        </mxCell>
        <mxCell id="5gYpoRD8Gp5rQAhavgbv-154" value="SegundoNumero" style="shape=partialRectangle;connectable=0;fillColor=none;top=0;left=0;bottom=0;right=0;align=left;spacingLeft=6;overflow=hidden;fontStyle=0" parent="5gYpoRD8Gp5rQAhavgbv-152" vertex="1">
          <mxGeometry x="30" width="150" height="30" as="geometry">
            <mxRectangle width="150" height="30" as="alternateBounds" />
          </mxGeometry>
        </mxCell>
        <mxCell id="5gYpoRD8Gp5rQAhavgbv-155" value="" style="shape=tableRow;horizontal=0;startSize=0;swimlaneHead=0;swimlaneBody=0;fillColor=none;collapsible=0;dropTarget=0;points=[[0,0.5],[1,0.5]];portConstraint=eastwest;top=0;left=0;right=0;bottom=0;" parent="5gYpoRD8Gp5rQAhavgbv-19" vertex="1">
          <mxGeometry y="210" width="180" height="30" as="geometry" />
        </mxCell>
        <mxCell id="5gYpoRD8Gp5rQAhavgbv-156" value="" style="shape=partialRectangle;connectable=0;fillColor=none;top=0;left=0;bottom=0;right=0;editable=1;overflow=hidden;" parent="5gYpoRD8Gp5rQAhavgbv-155" vertex="1">
          <mxGeometry width="30" height="30" as="geometry">
            <mxRectangle width="30" height="30" as="alternateBounds" />
          </mxGeometry>
        </mxCell>
        <mxCell id="5gYpoRD8Gp5rQAhavgbv-157" value="TerceiroNumero" style="shape=partialRectangle;connectable=0;fillColor=none;top=0;left=0;bottom=0;right=0;align=left;spacingLeft=6;overflow=hidden;fontStyle=0" parent="5gYpoRD8Gp5rQAhavgbv-155" vertex="1">
          <mxGeometry x="30" width="150" height="30" as="geometry">
            <mxRectangle width="150" height="30" as="alternateBounds" />
          </mxGeometry>
        </mxCell>
        <mxCell id="5gYpoRD8Gp5rQAhavgbv-159" value="" style="shape=tableRow;horizontal=0;startSize=0;swimlaneHead=0;swimlaneBody=0;fillColor=none;collapsible=0;dropTarget=0;points=[[0,0.5],[1,0.5]];portConstraint=eastwest;top=0;left=0;right=0;bottom=0;" parent="5gYpoRD8Gp5rQAhavgbv-19" vertex="1">
          <mxGeometry y="240" width="180" height="30" as="geometry" />
        </mxCell>
        <mxCell id="5gYpoRD8Gp5rQAhavgbv-160" value="" style="shape=partialRectangle;connectable=0;fillColor=none;top=0;left=0;bottom=0;right=0;editable=1;overflow=hidden;" parent="5gYpoRD8Gp5rQAhavgbv-159" vertex="1">
          <mxGeometry width="30" height="30" as="geometry">
            <mxRectangle width="30" height="30" as="alternateBounds" />
          </mxGeometry>
        </mxCell>
        <mxCell id="5gYpoRD8Gp5rQAhavgbv-161" value="QuartoNumero" style="shape=partialRectangle;connectable=0;fillColor=none;top=0;left=0;bottom=0;right=0;align=left;spacingLeft=6;overflow=hidden;fontStyle=0" parent="5gYpoRD8Gp5rQAhavgbv-159" vertex="1">
          <mxGeometry x="30" width="150" height="30" as="geometry">
            <mxRectangle width="150" height="30" as="alternateBounds" />
          </mxGeometry>
        </mxCell>
        <mxCell id="5gYpoRD8Gp5rQAhavgbv-162" value="" style="shape=tableRow;horizontal=0;startSize=0;swimlaneHead=0;swimlaneBody=0;fillColor=none;collapsible=0;dropTarget=0;points=[[0,0.5],[1,0.5]];portConstraint=eastwest;top=0;left=0;right=0;bottom=0;" parent="5gYpoRD8Gp5rQAhavgbv-19" vertex="1">
          <mxGeometry y="270" width="180" height="30" as="geometry" />
        </mxCell>
        <mxCell id="5gYpoRD8Gp5rQAhavgbv-163" value="" style="shape=partialRectangle;connectable=0;fillColor=none;top=0;left=0;bottom=0;right=0;editable=1;overflow=hidden;" parent="5gYpoRD8Gp5rQAhavgbv-162" vertex="1">
          <mxGeometry width="30" height="30" as="geometry">
            <mxRectangle width="30" height="30" as="alternateBounds" />
          </mxGeometry>
        </mxCell>
        <mxCell id="5gYpoRD8Gp5rQAhavgbv-164" value="QuintoNumero" style="shape=partialRectangle;connectable=0;fillColor=none;top=0;left=0;bottom=0;right=0;align=left;spacingLeft=6;overflow=hidden;fontStyle=0" parent="5gYpoRD8Gp5rQAhavgbv-162" vertex="1">
          <mxGeometry x="30" width="150" height="30" as="geometry">
            <mxRectangle width="150" height="30" as="alternateBounds" />
          </mxGeometry>
        </mxCell>
        <mxCell id="5gYpoRD8Gp5rQAhavgbv-165" value="" style="shape=tableRow;horizontal=0;startSize=0;swimlaneHead=0;swimlaneBody=0;fillColor=none;collapsible=0;dropTarget=0;points=[[0,0.5],[1,0.5]];portConstraint=eastwest;top=0;left=0;right=0;bottom=0;" parent="5gYpoRD8Gp5rQAhavgbv-19" vertex="1">
          <mxGeometry y="300" width="180" height="30" as="geometry" />
        </mxCell>
        <mxCell id="5gYpoRD8Gp5rQAhavgbv-166" value="" style="shape=partialRectangle;connectable=0;fillColor=none;top=0;left=0;bottom=0;right=0;editable=1;overflow=hidden;" parent="5gYpoRD8Gp5rQAhavgbv-165" vertex="1">
          <mxGeometry width="30" height="30" as="geometry">
            <mxRectangle width="30" height="30" as="alternateBounds" />
          </mxGeometry>
        </mxCell>
        <mxCell id="5gYpoRD8Gp5rQAhavgbv-167" value="SextoNumero" style="shape=partialRectangle;connectable=0;fillColor=none;top=0;left=0;bottom=0;right=0;align=left;spacingLeft=6;overflow=hidden;fontStyle=0" parent="5gYpoRD8Gp5rQAhavgbv-165" vertex="1">
          <mxGeometry x="30" width="150" height="30" as="geometry">
            <mxRectangle width="150" height="30" as="alternateBounds" />
          </mxGeometry>
        </mxCell>
        <mxCell id="5gYpoRD8Gp5rQAhavgbv-171" value="" style="shape=tableRow;horizontal=0;startSize=0;swimlaneHead=0;swimlaneBody=0;fillColor=none;collapsible=0;dropTarget=0;points=[[0,0.5],[1,0.5]];portConstraint=eastwest;top=0;left=0;right=0;bottom=0;" parent="5gYpoRD8Gp5rQAhavgbv-19" vertex="1">
          <mxGeometry y="330" width="180" height="30" as="geometry" />
        </mxCell>
        <mxCell id="5gYpoRD8Gp5rQAhavgbv-172" value="" style="shape=partialRectangle;connectable=0;fillColor=none;top=0;left=0;bottom=0;right=0;editable=1;overflow=hidden;" parent="5gYpoRD8Gp5rQAhavgbv-171" vertex="1">
          <mxGeometry width="30" height="30" as="geometry">
            <mxRectangle width="30" height="30" as="alternateBounds" />
          </mxGeometry>
        </mxCell>
        <mxCell id="5gYpoRD8Gp5rQAhavgbv-173" value="SetimoNumero" style="shape=partialRectangle;connectable=0;fillColor=none;top=0;left=0;bottom=0;right=0;align=left;spacingLeft=6;overflow=hidden;fontStyle=0" parent="5gYpoRD8Gp5rQAhavgbv-171" vertex="1">
          <mxGeometry x="30" width="150" height="30" as="geometry">
            <mxRectangle width="150" height="30" as="alternateBounds" />
          </mxGeometry>
        </mxCell>
        <mxCell id="5gYpoRD8Gp5rQAhavgbv-174" value="" style="shape=tableRow;horizontal=0;startSize=0;swimlaneHead=0;swimlaneBody=0;fillColor=none;collapsible=0;dropTarget=0;points=[[0,0.5],[1,0.5]];portConstraint=eastwest;top=0;left=0;right=0;bottom=0;" parent="5gYpoRD8Gp5rQAhavgbv-19" vertex="1">
          <mxGeometry y="360" width="180" height="30" as="geometry" />
        </mxCell>
        <mxCell id="5gYpoRD8Gp5rQAhavgbv-175" value="" style="shape=partialRectangle;connectable=0;fillColor=none;top=0;left=0;bottom=0;right=0;editable=1;overflow=hidden;" parent="5gYpoRD8Gp5rQAhavgbv-174" vertex="1">
          <mxGeometry width="30" height="30" as="geometry">
            <mxRectangle width="30" height="30" as="alternateBounds" />
          </mxGeometry>
        </mxCell>
        <mxCell id="5gYpoRD8Gp5rQAhavgbv-176" value="OitavoNumero" style="shape=partialRectangle;connectable=0;fillColor=none;top=0;left=0;bottom=0;right=0;align=left;spacingLeft=6;overflow=hidden;fontStyle=0" parent="5gYpoRD8Gp5rQAhavgbv-174" vertex="1">
          <mxGeometry x="30" width="150" height="30" as="geometry">
            <mxRectangle width="150" height="30" as="alternateBounds" />
          </mxGeometry>
        </mxCell>
        <mxCell id="5gYpoRD8Gp5rQAhavgbv-177" value="" style="shape=tableRow;horizontal=0;startSize=0;swimlaneHead=0;swimlaneBody=0;fillColor=none;collapsible=0;dropTarget=0;points=[[0,0.5],[1,0.5]];portConstraint=eastwest;top=0;left=0;right=0;bottom=0;" parent="5gYpoRD8Gp5rQAhavgbv-19" vertex="1">
          <mxGeometry y="390" width="180" height="30" as="geometry" />
        </mxCell>
        <mxCell id="5gYpoRD8Gp5rQAhavgbv-178" value="" style="shape=partialRectangle;connectable=0;fillColor=none;top=0;left=0;bottom=0;right=0;editable=1;overflow=hidden;" parent="5gYpoRD8Gp5rQAhavgbv-177" vertex="1">
          <mxGeometry width="30" height="30" as="geometry">
            <mxRectangle width="30" height="30" as="alternateBounds" />
          </mxGeometry>
        </mxCell>
        <mxCell id="5gYpoRD8Gp5rQAhavgbv-179" value="NonoNumero" style="shape=partialRectangle;connectable=0;fillColor=none;top=0;left=0;bottom=0;right=0;align=left;spacingLeft=6;overflow=hidden;fontStyle=0" parent="5gYpoRD8Gp5rQAhavgbv-177" vertex="1">
          <mxGeometry x="30" width="150" height="30" as="geometry">
            <mxRectangle width="150" height="30" as="alternateBounds" />
          </mxGeometry>
        </mxCell>
        <mxCell id="5gYpoRD8Gp5rQAhavgbv-180" value="" style="shape=tableRow;horizontal=0;startSize=0;swimlaneHead=0;swimlaneBody=0;fillColor=none;collapsible=0;dropTarget=0;points=[[0,0.5],[1,0.5]];portConstraint=eastwest;top=0;left=0;right=0;bottom=0;" parent="5gYpoRD8Gp5rQAhavgbv-19" vertex="1">
          <mxGeometry y="420" width="180" height="30" as="geometry" />
        </mxCell>
        <mxCell id="5gYpoRD8Gp5rQAhavgbv-181" value="" style="shape=partialRectangle;connectable=0;fillColor=none;top=0;left=0;bottom=0;right=0;editable=1;overflow=hidden;" parent="5gYpoRD8Gp5rQAhavgbv-180" vertex="1">
          <mxGeometry width="30" height="30" as="geometry">
            <mxRectangle width="30" height="30" as="alternateBounds" />
          </mxGeometry>
        </mxCell>
        <mxCell id="5gYpoRD8Gp5rQAhavgbv-182" value="DecimoNumero" style="shape=partialRectangle;connectable=0;fillColor=none;top=0;left=0;bottom=0;right=0;align=left;spacingLeft=6;overflow=hidden;fontStyle=0" parent="5gYpoRD8Gp5rQAhavgbv-180" vertex="1">
          <mxGeometry x="30" width="150" height="30" as="geometry">
            <mxRectangle width="150" height="30" as="alternateBounds" />
          </mxGeometry>
        </mxCell>
        <mxCell id="5gYpoRD8Gp5rQAhavgbv-188" value="" style="shape=tableRow;horizontal=0;startSize=0;swimlaneHead=0;swimlaneBody=0;fillColor=none;collapsible=0;dropTarget=0;points=[[0,0.5],[1,0.5]];portConstraint=eastwest;top=0;left=0;right=0;bottom=0;" parent="5gYpoRD8Gp5rQAhavgbv-19" vertex="1">
          <mxGeometry y="450" width="180" height="30" as="geometry" />
        </mxCell>
        <mxCell id="5gYpoRD8Gp5rQAhavgbv-189" value="" style="shape=partialRectangle;connectable=0;fillColor=none;top=0;left=0;bottom=0;right=0;editable=1;overflow=hidden;" parent="5gYpoRD8Gp5rQAhavgbv-188" vertex="1">
          <mxGeometry width="30" height="30" as="geometry">
            <mxRectangle width="30" height="30" as="alternateBounds" />
          </mxGeometry>
        </mxCell>
        <mxCell id="5gYpoRD8Gp5rQAhavgbv-190" value="ValorPremio" style="shape=partialRectangle;connectable=0;fillColor=none;top=0;left=0;bottom=0;right=0;align=left;spacingLeft=6;overflow=hidden;" parent="5gYpoRD8Gp5rQAhavgbv-188" vertex="1">
          <mxGeometry x="30" width="150" height="30" as="geometry">
            <mxRectangle width="150" height="30" as="alternateBounds" />
          </mxGeometry>
        </mxCell>
        <mxCell id="5gYpoRD8Gp5rQAhavgbv-186" style="edgeStyle=orthogonalEdgeStyle;rounded=0;orthogonalLoop=1;jettySize=auto;html=1;endArrow=ERmandOne;endFill=0;startArrow=ERoneToMany;startFill=0;entryX=0;entryY=0.5;entryDx=0;entryDy=0;" parent="WIyWlLk6GJQsqaUBKTNV-1" source="5gYpoRD8Gp5rQAhavgbv-54" target="5gYpoRD8Gp5rQAhavgbv-149" edge="1">
          <mxGeometry relative="1" as="geometry">
            <mxPoint x="390" y="360" as="targetPoint" />
            <Array as="points">
              <mxPoint x="380" y="625" />
              <mxPoint x="380" y="355" />
            </Array>
          </mxGeometry>
        </mxCell>
        <mxCell id="5gYpoRD8Gp5rQAhavgbv-54" value="Cartela" style="shape=table;startSize=30;container=1;collapsible=1;childLayout=tableLayout;fixedRows=1;rowLines=0;fontStyle=1;align=center;resizeLast=1;html=1;" parent="WIyWlLk6GJQsqaUBKTNV-1" vertex="1">
          <mxGeometry x="150" y="450" width="180" height="360" as="geometry" />
        </mxCell>
        <mxCell id="5gYpoRD8Gp5rQAhavgbv-55" value="" style="shape=tableRow;horizontal=0;startSize=0;swimlaneHead=0;swimlaneBody=0;fillColor=none;collapsible=0;dropTarget=0;points=[[0,0.5],[1,0.5]];portConstraint=eastwest;top=0;left=0;right=0;bottom=1;" parent="5gYpoRD8Gp5rQAhavgbv-54" vertex="1">
          <mxGeometry y="30" width="180" height="30" as="geometry" />
        </mxCell>
        <mxCell id="5gYpoRD8Gp5rQAhavgbv-56" value="PK" style="shape=partialRectangle;connectable=0;fillColor=none;top=0;left=0;bottom=0;right=0;fontStyle=1;overflow=hidden;whiteSpace=wrap;html=1;" parent="5gYpoRD8Gp5rQAhavgbv-55" vertex="1">
          <mxGeometry width="30" height="30" as="geometry">
            <mxRectangle width="30" height="30" as="alternateBounds" />
          </mxGeometry>
        </mxCell>
        <mxCell id="5gYpoRD8Gp5rQAhavgbv-57" value="Id" style="shape=partialRectangle;connectable=0;fillColor=none;top=0;left=0;bottom=0;right=0;align=left;spacingLeft=6;fontStyle=5;overflow=hidden;whiteSpace=wrap;html=1;" parent="5gYpoRD8Gp5rQAhavgbv-55" vertex="1">
          <mxGeometry x="30" width="150" height="30" as="geometry">
            <mxRectangle width="150" height="30" as="alternateBounds" />
          </mxGeometry>
        </mxCell>
        <mxCell id="5gYpoRD8Gp5rQAhavgbv-58" value="" style="shape=tableRow;horizontal=0;startSize=0;swimlaneHead=0;swimlaneBody=0;fillColor=none;collapsible=0;dropTarget=0;points=[[0,0.5],[1,0.5]];portConstraint=eastwest;top=0;left=0;right=0;bottom=0;" parent="5gYpoRD8Gp5rQAhavgbv-54" vertex="1">
          <mxGeometry y="60" width="180" height="30" as="geometry" />
        </mxCell>
        <mxCell id="5gYpoRD8Gp5rQAhavgbv-59" value="" style="shape=partialRectangle;connectable=0;fillColor=none;top=0;left=0;bottom=0;right=0;editable=1;overflow=hidden;whiteSpace=wrap;html=1;" parent="5gYpoRD8Gp5rQAhavgbv-58" vertex="1">
          <mxGeometry width="30" height="30" as="geometry">
            <mxRectangle width="30" height="30" as="alternateBounds" />
          </mxGeometry>
        </mxCell>
        <mxCell id="5gYpoRD8Gp5rQAhavgbv-60" value="PrimeiroNumero" style="shape=partialRectangle;connectable=0;fillColor=none;top=0;left=0;bottom=0;right=0;align=left;spacingLeft=6;overflow=hidden;whiteSpace=wrap;html=1;" parent="5gYpoRD8Gp5rQAhavgbv-58" vertex="1">
          <mxGeometry x="30" width="150" height="30" as="geometry">
            <mxRectangle width="150" height="30" as="alternateBounds" />
          </mxGeometry>
        </mxCell>
        <mxCell id="5gYpoRD8Gp5rQAhavgbv-68" value="" style="shape=tableRow;horizontal=0;startSize=0;swimlaneHead=0;swimlaneBody=0;fillColor=none;collapsible=0;dropTarget=0;points=[[0,0.5],[1,0.5]];portConstraint=eastwest;top=0;left=0;right=0;bottom=0;" parent="5gYpoRD8Gp5rQAhavgbv-54" vertex="1">
          <mxGeometry y="90" width="180" height="30" as="geometry" />
        </mxCell>
        <mxCell id="5gYpoRD8Gp5rQAhavgbv-69" value="" style="shape=partialRectangle;connectable=0;fillColor=none;top=0;left=0;bottom=0;right=0;editable=1;overflow=hidden;whiteSpace=wrap;html=1;" parent="5gYpoRD8Gp5rQAhavgbv-68" vertex="1">
          <mxGeometry width="30" height="30" as="geometry">
            <mxRectangle width="30" height="30" as="alternateBounds" />
          </mxGeometry>
        </mxCell>
        <mxCell id="5gYpoRD8Gp5rQAhavgbv-70" value="SegundoNumero" style="shape=partialRectangle;connectable=0;fillColor=none;top=0;left=0;bottom=0;right=0;align=left;spacingLeft=6;overflow=hidden;whiteSpace=wrap;html=1;" parent="5gYpoRD8Gp5rQAhavgbv-68" vertex="1">
          <mxGeometry x="30" width="150" height="30" as="geometry">
            <mxRectangle width="150" height="30" as="alternateBounds" />
          </mxGeometry>
        </mxCell>
        <mxCell id="5gYpoRD8Gp5rQAhavgbv-74" value="" style="shape=tableRow;horizontal=0;startSize=0;swimlaneHead=0;swimlaneBody=0;fillColor=none;collapsible=0;dropTarget=0;points=[[0,0.5],[1,0.5]];portConstraint=eastwest;top=0;left=0;right=0;bottom=0;" parent="5gYpoRD8Gp5rQAhavgbv-54" vertex="1">
          <mxGeometry y="120" width="180" height="30" as="geometry" />
        </mxCell>
        <mxCell id="5gYpoRD8Gp5rQAhavgbv-75" value="" style="shape=partialRectangle;connectable=0;fillColor=none;top=0;left=0;bottom=0;right=0;editable=1;overflow=hidden;whiteSpace=wrap;html=1;" parent="5gYpoRD8Gp5rQAhavgbv-74" vertex="1">
          <mxGeometry width="30" height="30" as="geometry">
            <mxRectangle width="30" height="30" as="alternateBounds" />
          </mxGeometry>
        </mxCell>
        <mxCell id="5gYpoRD8Gp5rQAhavgbv-76" value="TerceiroNumero" style="shape=partialRectangle;connectable=0;fillColor=none;top=0;left=0;bottom=0;right=0;align=left;spacingLeft=6;overflow=hidden;whiteSpace=wrap;html=1;" parent="5gYpoRD8Gp5rQAhavgbv-74" vertex="1">
          <mxGeometry x="30" width="150" height="30" as="geometry">
            <mxRectangle width="150" height="30" as="alternateBounds" />
          </mxGeometry>
        </mxCell>
        <mxCell id="5gYpoRD8Gp5rQAhavgbv-77" value="" style="shape=tableRow;horizontal=0;startSize=0;swimlaneHead=0;swimlaneBody=0;fillColor=none;collapsible=0;dropTarget=0;points=[[0,0.5],[1,0.5]];portConstraint=eastwest;top=0;left=0;right=0;bottom=0;" parent="5gYpoRD8Gp5rQAhavgbv-54" vertex="1">
          <mxGeometry y="150" width="180" height="30" as="geometry" />
        </mxCell>
        <mxCell id="5gYpoRD8Gp5rQAhavgbv-78" value="" style="shape=partialRectangle;connectable=0;fillColor=none;top=0;left=0;bottom=0;right=0;editable=1;overflow=hidden;whiteSpace=wrap;html=1;" parent="5gYpoRD8Gp5rQAhavgbv-77" vertex="1">
          <mxGeometry width="30" height="30" as="geometry">
            <mxRectangle width="30" height="30" as="alternateBounds" />
          </mxGeometry>
        </mxCell>
        <mxCell id="5gYpoRD8Gp5rQAhavgbv-79" value="QuartoNumero" style="shape=partialRectangle;connectable=0;fillColor=none;top=0;left=0;bottom=0;right=0;align=left;spacingLeft=6;overflow=hidden;whiteSpace=wrap;html=1;" parent="5gYpoRD8Gp5rQAhavgbv-77" vertex="1">
          <mxGeometry x="30" width="150" height="30" as="geometry">
            <mxRectangle width="150" height="30" as="alternateBounds" />
          </mxGeometry>
        </mxCell>
        <mxCell id="5gYpoRD8Gp5rQAhavgbv-80" value="" style="shape=tableRow;horizontal=0;startSize=0;swimlaneHead=0;swimlaneBody=0;fillColor=none;collapsible=0;dropTarget=0;points=[[0,0.5],[1,0.5]];portConstraint=eastwest;top=0;left=0;right=0;bottom=0;" parent="5gYpoRD8Gp5rQAhavgbv-54" vertex="1">
          <mxGeometry y="180" width="180" height="30" as="geometry" />
        </mxCell>
        <mxCell id="5gYpoRD8Gp5rQAhavgbv-81" value="" style="shape=partialRectangle;connectable=0;fillColor=none;top=0;left=0;bottom=0;right=0;editable=1;overflow=hidden;whiteSpace=wrap;html=1;" parent="5gYpoRD8Gp5rQAhavgbv-80" vertex="1">
          <mxGeometry width="30" height="30" as="geometry">
            <mxRectangle width="30" height="30" as="alternateBounds" />
          </mxGeometry>
        </mxCell>
        <mxCell id="5gYpoRD8Gp5rQAhavgbv-82" value="QuintoNumero" style="shape=partialRectangle;connectable=0;fillColor=none;top=0;left=0;bottom=0;right=0;align=left;spacingLeft=6;overflow=hidden;whiteSpace=wrap;html=1;" parent="5gYpoRD8Gp5rQAhavgbv-80" vertex="1">
          <mxGeometry x="30" width="150" height="30" as="geometry">
            <mxRectangle width="150" height="30" as="alternateBounds" />
          </mxGeometry>
        </mxCell>
        <mxCell id="5gYpoRD8Gp5rQAhavgbv-136" value="" style="shape=tableRow;horizontal=0;startSize=0;swimlaneHead=0;swimlaneBody=0;fillColor=none;collapsible=0;dropTarget=0;points=[[0,0.5],[1,0.5]];portConstraint=eastwest;top=0;left=0;right=0;bottom=0;" parent="5gYpoRD8Gp5rQAhavgbv-54" vertex="1">
          <mxGeometry y="210" width="180" height="30" as="geometry" />
        </mxCell>
        <mxCell id="5gYpoRD8Gp5rQAhavgbv-137" value="" style="shape=partialRectangle;connectable=0;fillColor=none;top=0;left=0;bottom=0;right=0;editable=1;overflow=hidden;whiteSpace=wrap;html=1;" parent="5gYpoRD8Gp5rQAhavgbv-136" vertex="1">
          <mxGeometry width="30" height="30" as="geometry">
            <mxRectangle width="30" height="30" as="alternateBounds" />
          </mxGeometry>
        </mxCell>
        <mxCell id="5gYpoRD8Gp5rQAhavgbv-138" value="&lt;b&gt;UsuarioId?&lt;/b&gt;" style="shape=partialRectangle;connectable=0;fillColor=none;top=0;left=0;bottom=0;right=0;align=left;spacingLeft=6;overflow=hidden;whiteSpace=wrap;html=1;" parent="5gYpoRD8Gp5rQAhavgbv-136" vertex="1">
          <mxGeometry x="30" width="150" height="30" as="geometry">
            <mxRectangle width="150" height="30" as="alternateBounds" />
          </mxGeometry>
        </mxCell>
        <mxCell id="5gYpoRD8Gp5rQAhavgbv-143" value="" style="shape=tableRow;horizontal=0;startSize=0;swimlaneHead=0;swimlaneBody=0;fillColor=none;collapsible=0;dropTarget=0;points=[[0,0.5],[1,0.5]];portConstraint=eastwest;top=0;left=0;right=0;bottom=0;" parent="5gYpoRD8Gp5rQAhavgbv-54" vertex="1">
          <mxGeometry y="240" width="180" height="30" as="geometry" />
        </mxCell>
        <mxCell id="5gYpoRD8Gp5rQAhavgbv-144" value="" style="shape=partialRectangle;connectable=0;fillColor=none;top=0;left=0;bottom=0;right=0;editable=1;overflow=hidden;whiteSpace=wrap;html=1;" parent="5gYpoRD8Gp5rQAhavgbv-143" vertex="1">
          <mxGeometry width="30" height="30" as="geometry">
            <mxRectangle width="30" height="30" as="alternateBounds" />
          </mxGeometry>
        </mxCell>
        <mxCell id="5gYpoRD8Gp5rQAhavgbv-145" value="&lt;b&gt;PremioId&lt;/b&gt;" style="shape=partialRectangle;connectable=0;fillColor=none;top=0;left=0;bottom=0;right=0;align=left;spacingLeft=6;overflow=hidden;whiteSpace=wrap;html=1;" parent="5gYpoRD8Gp5rQAhavgbv-143" vertex="1">
          <mxGeometry x="30" width="150" height="30" as="geometry">
            <mxRectangle width="150" height="30" as="alternateBounds" />
          </mxGeometry>
        </mxCell>
        <mxCell id="5gYpoRD8Gp5rQAhavgbv-191" value="" style="shape=tableRow;horizontal=0;startSize=0;swimlaneHead=0;swimlaneBody=0;fillColor=none;collapsible=0;dropTarget=0;points=[[0,0.5],[1,0.5]];portConstraint=eastwest;top=0;left=0;right=0;bottom=0;" parent="5gYpoRD8Gp5rQAhavgbv-54" vertex="1">
          <mxGeometry y="270" width="180" height="30" as="geometry" />
        </mxCell>
        <mxCell id="5gYpoRD8Gp5rQAhavgbv-192" value="" style="shape=partialRectangle;connectable=0;fillColor=none;top=0;left=0;bottom=0;right=0;editable=1;overflow=hidden;whiteSpace=wrap;html=1;" parent="5gYpoRD8Gp5rQAhavgbv-191" vertex="1">
          <mxGeometry width="30" height="30" as="geometry">
            <mxRectangle width="30" height="30" as="alternateBounds" />
          </mxGeometry>
        </mxCell>
        <mxCell id="5gYpoRD8Gp5rQAhavgbv-193" value="Preco" style="shape=partialRectangle;connectable=0;fillColor=none;top=0;left=0;bottom=0;right=0;align=left;spacingLeft=6;overflow=hidden;whiteSpace=wrap;html=1;" parent="5gYpoRD8Gp5rQAhavgbv-191" vertex="1">
          <mxGeometry x="30" width="150" height="30" as="geometry">
            <mxRectangle width="150" height="30" as="alternateBounds" />
          </mxGeometry>
        </mxCell>
        <mxCell id="5gYpoRD8Gp5rQAhavgbv-194" value="" style="shape=tableRow;horizontal=0;startSize=0;swimlaneHead=0;swimlaneBody=0;fillColor=none;collapsible=0;dropTarget=0;points=[[0,0.5],[1,0.5]];portConstraint=eastwest;top=0;left=0;right=0;bottom=0;" parent="5gYpoRD8Gp5rQAhavgbv-54" vertex="1">
          <mxGeometry y="300" width="180" height="30" as="geometry" />
        </mxCell>
        <mxCell id="5gYpoRD8Gp5rQAhavgbv-195" value="" style="shape=partialRectangle;connectable=0;fillColor=none;top=0;left=0;bottom=0;right=0;editable=1;overflow=hidden;whiteSpace=wrap;html=1;" parent="5gYpoRD8Gp5rQAhavgbv-194" vertex="1">
          <mxGeometry width="30" height="30" as="geometry">
            <mxRectangle width="30" height="30" as="alternateBounds" />
          </mxGeometry>
        </mxCell>
        <mxCell id="5gYpoRD8Gp5rQAhavgbv-196" value="CompraAprovada" style="shape=partialRectangle;connectable=0;fillColor=none;top=0;left=0;bottom=0;right=0;align=left;spacingLeft=6;overflow=hidden;whiteSpace=wrap;html=1;" parent="5gYpoRD8Gp5rQAhavgbv-194" vertex="1">
          <mxGeometry x="30" width="150" height="30" as="geometry">
            <mxRectangle width="150" height="30" as="alternateBounds" />
          </mxGeometry>
        </mxCell>
        <mxCell id="5gYpoRD8Gp5rQAhavgbv-212" value="" style="shape=tableRow;horizontal=0;startSize=0;swimlaneHead=0;swimlaneBody=0;fillColor=none;collapsible=0;dropTarget=0;points=[[0,0.5],[1,0.5]];portConstraint=eastwest;top=0;left=0;right=0;bottom=0;" parent="5gYpoRD8Gp5rQAhavgbv-54" vertex="1">
          <mxGeometry y="330" width="180" height="30" as="geometry" />
        </mxCell>
        <mxCell id="5gYpoRD8Gp5rQAhavgbv-213" value="" style="shape=partialRectangle;connectable=0;fillColor=none;top=0;left=0;bottom=0;right=0;editable=1;overflow=hidden;whiteSpace=wrap;html=1;" parent="5gYpoRD8Gp5rQAhavgbv-212" vertex="1">
          <mxGeometry width="30" height="30" as="geometry">
            <mxRectangle width="30" height="30" as="alternateBounds" />
          </mxGeometry>
        </mxCell>
        <mxCell id="5gYpoRD8Gp5rQAhavgbv-214" value="Sorteada" style="shape=partialRectangle;connectable=0;fillColor=none;top=0;left=0;bottom=0;right=0;align=left;spacingLeft=6;overflow=hidden;whiteSpace=wrap;html=1;" parent="5gYpoRD8Gp5rQAhavgbv-212" vertex="1">
          <mxGeometry x="30" width="150" height="30" as="geometry">
            <mxRectangle width="150" height="30" as="alternateBounds" />
          </mxGeometry>
        </mxCell>
      </root>
    </mxGraphModel>
  </diagram>
  <diagram id="t0Q3sXmMQNZ7N25g87pG" name="Arquitetura Micro">
    <mxGraphModel dx="3680" dy="1183" grid="1" gridSize="10" guides="1" tooltips="1" connect="1" arrows="1" fold="1" page="1" pageScale="1" pageWidth="827" pageHeight="1169" math="0" shadow="0">
      <root>
        <mxCell id="0" />
        <mxCell id="1" parent="0" />
        <mxCell id="3eEvvXUj4bKCIbDxGzvw-48" style="edgeStyle=orthogonalEdgeStyle;rounded=0;orthogonalLoop=1;jettySize=auto;html=1;entryX=0.015;entryY=0.229;entryDx=0;entryDy=0;entryPerimeter=0;startArrow=classic;startFill=1;" parent="1" source="3eEvvXUj4bKCIbDxGzvw-46" target="3eEvvXUj4bKCIbDxGzvw-14" edge="1">
          <mxGeometry relative="1" as="geometry" />
        </mxCell>
        <mxCell id="3eEvvXUj4bKCIbDxGzvw-46" value="" style="rounded=0;whiteSpace=wrap;html=1;" parent="1" vertex="1">
          <mxGeometry x="-120" y="90" width="770" height="290" as="geometry" />
        </mxCell>
        <mxCell id="3eEvvXUj4bKCIbDxGzvw-47" style="edgeStyle=orthogonalEdgeStyle;rounded=0;orthogonalLoop=1;jettySize=auto;html=1;entryX=0;entryY=0.75;entryDx=0;entryDy=0;startArrow=classic;startFill=1;" parent="1" source="3eEvvXUj4bKCIbDxGzvw-45" target="3eEvvXUj4bKCIbDxGzvw-14" edge="1">
          <mxGeometry relative="1" as="geometry" />
        </mxCell>
        <mxCell id="3eEvvXUj4bKCIbDxGzvw-45" value="" style="rounded=0;whiteSpace=wrap;html=1;" parent="1" vertex="1">
          <mxGeometry x="-120" y="400" width="770" height="290" as="geometry" />
        </mxCell>
        <mxCell id="3eEvvXUj4bKCIbDxGzvw-10" value="BD" style="shape=cylinder3;whiteSpace=wrap;html=1;boundedLbl=1;backgroundOutline=1;size=15;" parent="1" vertex="1">
          <mxGeometry x="440" y="156" width="140" height="158" as="geometry" />
        </mxCell>
        <mxCell id="3eEvvXUj4bKCIbDxGzvw-44" style="edgeStyle=orthogonalEdgeStyle;rounded=0;orthogonalLoop=1;jettySize=auto;html=1;entryX=0;entryY=0.5;entryDx=0;entryDy=0;entryPerimeter=0;startArrow=classicThin;startFill=1;" parent="1" source="3eEvvXUj4bKCIbDxGzvw-13" target="3eEvvXUj4bKCIbDxGzvw-10" edge="1">
          <mxGeometry relative="1" as="geometry" />
        </mxCell>
        <mxCell id="3eEvvXUj4bKCIbDxGzvw-13" value="API Identidade" style="rounded=0;whiteSpace=wrap;html=1;verticalAlign=top;" parent="1" vertex="1">
          <mxGeometry x="-30" y="130" width="340" height="210" as="geometry" />
        </mxCell>
        <mxCell id="3eEvvXUj4bKCIbDxGzvw-14" value="RabbitMQ" style="rounded=0;whiteSpace=wrap;html=1;" parent="1" vertex="1">
          <mxGeometry x="800" y="90" width="100" height="600" as="geometry" />
        </mxCell>
        <mxCell id="3eEvvXUj4bKCIbDxGzvw-15" value="Data" style="rounded=0;whiteSpace=wrap;html=1;" parent="1" vertex="1">
          <mxGeometry x="28" y="208" width="230" height="30" as="geometry" />
        </mxCell>
        <mxCell id="3eEvvXUj4bKCIbDxGzvw-16" value="Models" style="rounded=0;whiteSpace=wrap;html=1;" parent="1" vertex="1">
          <mxGeometry x="28" y="168" width="230" height="30" as="geometry" />
        </mxCell>
        <mxCell id="3eEvvXUj4bKCIbDxGzvw-17" value="ViewModels" style="rounded=0;whiteSpace=wrap;html=1;" parent="1" vertex="1">
          <mxGeometry x="28" y="248" width="230" height="30" as="geometry" />
        </mxCell>
        <mxCell id="3eEvvXUj4bKCIbDxGzvw-18" value="Services" style="rounded=0;whiteSpace=wrap;html=1;" parent="1" vertex="1">
          <mxGeometry x="28" y="288" width="230" height="30" as="geometry" />
        </mxCell>
        <mxCell id="3eEvvXUj4bKCIbDxGzvw-43" style="edgeStyle=orthogonalEdgeStyle;rounded=0;orthogonalLoop=1;jettySize=auto;html=1;entryX=-0.021;entryY=0.57;entryDx=0;entryDy=0;entryPerimeter=0;startArrow=classic;startFill=1;" parent="1" source="3eEvvXUj4bKCIbDxGzvw-21" target="3eEvvXUj4bKCIbDxGzvw-42" edge="1">
          <mxGeometry relative="1" as="geometry" />
        </mxCell>
        <mxCell id="3eEvvXUj4bKCIbDxGzvw-21" value="API Sorteio" style="rounded=0;whiteSpace=wrap;html=1;verticalAlign=top;" parent="1" vertex="1">
          <mxGeometry x="-30" y="440" width="340" height="210" as="geometry" />
        </mxCell>
        <mxCell id="3eEvvXUj4bKCIbDxGzvw-22" value="Data" style="rounded=0;whiteSpace=wrap;html=1;" parent="1" vertex="1">
          <mxGeometry x="28" y="518" width="230" height="30" as="geometry" />
        </mxCell>
        <mxCell id="3eEvvXUj4bKCIbDxGzvw-23" value="Models" style="rounded=0;whiteSpace=wrap;html=1;" parent="1" vertex="1">
          <mxGeometry x="28" y="478" width="230" height="30" as="geometry" />
        </mxCell>
        <mxCell id="3eEvvXUj4bKCIbDxGzvw-24" value="ViewModels" style="rounded=0;whiteSpace=wrap;html=1;" parent="1" vertex="1">
          <mxGeometry x="28" y="558" width="230" height="30" as="geometry" />
        </mxCell>
        <mxCell id="3eEvvXUj4bKCIbDxGzvw-25" value="Services" style="rounded=0;whiteSpace=wrap;html=1;" parent="1" vertex="1">
          <mxGeometry x="28" y="598" width="230" height="30" as="geometry" />
        </mxCell>
        <mxCell id="3eEvvXUj4bKCIbDxGzvw-42" value="BD" style="shape=cylinder3;whiteSpace=wrap;html=1;boundedLbl=1;backgroundOutline=1;size=15;" parent="1" vertex="1">
          <mxGeometry x="450" y="454" width="140" height="158" as="geometry" />
        </mxCell>
        <mxCell id="3eEvvXUj4bKCIbDxGzvw-49" value="Blazor" style="rounded=0;whiteSpace=wrap;html=1;" parent="1" vertex="1">
          <mxGeometry x="-940" y="280" width="170" height="100" as="geometry" />
        </mxCell>
        <mxCell id="3eEvvXUj4bKCIbDxGzvw-50" value="React" style="rounded=0;whiteSpace=wrap;html=1;" parent="1" vertex="1">
          <mxGeometry x="-940" y="408" width="170" height="100" as="geometry" />
        </mxCell>
        <mxCell id="3eEvvXUj4bKCIbDxGzvw-51" value="" style="endArrow=classic;startArrow=classic;html=1;rounded=0;exitX=1;exitY=0.5;exitDx=0;exitDy=0;entryX=0;entryY=0.5;entryDx=0;entryDy=0;" parent="1" source="3eEvvXUj4bKCIbDxGzvw-49" target="3eEvvXUj4bKCIbDxGzvw-55" edge="1">
          <mxGeometry width="50" height="50" relative="1" as="geometry">
            <mxPoint x="-80" y="440" as="sourcePoint" />
            <mxPoint x="-30" y="390" as="targetPoint" />
          </mxGeometry>
        </mxCell>
        <mxCell id="3eEvvXUj4bKCIbDxGzvw-52" value="" style="endArrow=classic;startArrow=classic;html=1;rounded=0;exitX=1.006;exitY=0.463;exitDx=0;exitDy=0;entryX=0;entryY=0.5;entryDx=0;entryDy=0;exitPerimeter=0;" parent="1" source="3eEvvXUj4bKCIbDxGzvw-55" target="3eEvvXUj4bKCIbDxGzvw-45" edge="1">
          <mxGeometry width="50" height="50" relative="1" as="geometry">
            <mxPoint x="-510" y="340" as="sourcePoint" />
            <mxPoint x="-111" y="236" as="targetPoint" />
          </mxGeometry>
        </mxCell>
        <mxCell id="3eEvvXUj4bKCIbDxGzvw-53" value="" style="endArrow=classic;startArrow=classic;html=1;rounded=0;exitX=1;exitY=0.5;exitDx=0;exitDy=0;entryX=0;entryY=0.5;entryDx=0;entryDy=0;" parent="1" source="3eEvvXUj4bKCIbDxGzvw-50" target="3eEvvXUj4bKCIbDxGzvw-55" edge="1">
          <mxGeometry width="50" height="50" relative="1" as="geometry">
            <mxPoint x="-260" y="380" as="sourcePoint" />
            <mxPoint x="-150" y="200" as="targetPoint" />
          </mxGeometry>
        </mxCell>
        <mxCell id="3eEvvXUj4bKCIbDxGzvw-54" value="" style="endArrow=classic;startArrow=classic;html=1;rounded=0;entryX=0.001;entryY=0.296;entryDx=0;entryDy=0;entryPerimeter=0;exitX=1;exitY=0.5;exitDx=0;exitDy=0;" parent="1" source="3eEvvXUj4bKCIbDxGzvw-55" target="3eEvvXUj4bKCIbDxGzvw-46" edge="1">
          <mxGeometry width="50" height="50" relative="1" as="geometry">
            <mxPoint x="-230" y="380" as="sourcePoint" />
            <mxPoint x="-51" y="679.5" as="targetPoint" />
          </mxGeometry>
        </mxCell>
        <mxCell id="3eEvvXUj4bKCIbDxGzvw-55" value="API Gateway" style="rounded=0;whiteSpace=wrap;html=1;verticalAlign=top;" parent="1" vertex="1">
          <mxGeometry x="-640" y="288" width="340" height="210" as="geometry" />
        </mxCell>
      </root>
    </mxGraphModel>
  </diagram>
  <diagram name="Arquitetura Mono" id="Y9iww2RDvKkgS8-DPaTT">
    <mxGraphModel dx="2022" dy="703" grid="1" gridSize="10" guides="1" tooltips="1" connect="1" arrows="1" fold="1" page="1" pageScale="1" pageWidth="827" pageHeight="1169" math="0" shadow="0">
      <root>
        <mxCell id="4vVZ5W4KXW4CrQefSzg9-0" />
        <mxCell id="4vVZ5W4KXW4CrQefSzg9-1" parent="4vVZ5W4KXW4CrQefSzg9-0" />
        <mxCell id="4vVZ5W4KXW4CrQefSzg9-2" style="edgeStyle=orthogonalEdgeStyle;rounded=0;orthogonalLoop=1;jettySize=auto;html=1;entryX=0.015;entryY=0.229;entryDx=0;entryDy=0;entryPerimeter=0;startArrow=classic;startFill=1;" edge="1" parent="4vVZ5W4KXW4CrQefSzg9-1" source="4vVZ5W4KXW4CrQefSzg9-3" target="4vVZ5W4KXW4CrQefSzg9-9">
          <mxGeometry relative="1" as="geometry" />
        </mxCell>
        <mxCell id="4vVZ5W4KXW4CrQefSzg9-3" value="" style="rounded=0;whiteSpace=wrap;html=1;" vertex="1" parent="4vVZ5W4KXW4CrQefSzg9-1">
          <mxGeometry x="-120" y="90" width="770" height="290" as="geometry" />
        </mxCell>
        <mxCell id="4vVZ5W4KXW4CrQefSzg9-6" value="BD" style="shape=cylinder3;whiteSpace=wrap;html=1;boundedLbl=1;backgroundOutline=1;size=15;" vertex="1" parent="4vVZ5W4KXW4CrQefSzg9-1">
          <mxGeometry x="440" y="156" width="140" height="158" as="geometry" />
        </mxCell>
        <mxCell id="4vVZ5W4KXW4CrQefSzg9-8" value="API TechSorte" style="rounded=0;whiteSpace=wrap;html=1;verticalAlign=top;" vertex="1" parent="4vVZ5W4KXW4CrQefSzg9-1">
          <mxGeometry x="30" y="130" width="230" height="30" as="geometry" />
        </mxCell>
        <mxCell id="uAjwzZl9WmDg_dWlWofx-4" style="edgeStyle=orthogonalEdgeStyle;rounded=0;orthogonalLoop=1;jettySize=auto;html=1;entryX=0.004;entryY=0.441;entryDx=0;entryDy=0;entryPerimeter=0;" edge="1" parent="4vVZ5W4KXW4CrQefSzg9-1" source="4vVZ5W4KXW4CrQefSzg9-9" target="uAjwzZl9WmDg_dWlWofx-0">
          <mxGeometry relative="1" as="geometry" />
        </mxCell>
        <mxCell id="uAjwzZl9WmDg_dWlWofx-5" style="edgeStyle=orthogonalEdgeStyle;rounded=0;orthogonalLoop=1;jettySize=auto;html=1;entryX=0;entryY=0.5;entryDx=0;entryDy=0;" edge="1" parent="4vVZ5W4KXW4CrQefSzg9-1" source="4vVZ5W4KXW4CrQefSzg9-9" target="uAjwzZl9WmDg_dWlWofx-1">
          <mxGeometry relative="1" as="geometry" />
        </mxCell>
        <mxCell id="uAjwzZl9WmDg_dWlWofx-6" style="edgeStyle=orthogonalEdgeStyle;rounded=0;orthogonalLoop=1;jettySize=auto;html=1;" edge="1" parent="4vVZ5W4KXW4CrQefSzg9-1" source="4vVZ5W4KXW4CrQefSzg9-9" target="uAjwzZl9WmDg_dWlWofx-2">
          <mxGeometry relative="1" as="geometry" />
        </mxCell>
        <mxCell id="4vVZ5W4KXW4CrQefSzg9-9" value="RabbitMQ" style="rounded=0;whiteSpace=wrap;html=1;" vertex="1" parent="4vVZ5W4KXW4CrQefSzg9-1">
          <mxGeometry x="800" y="90" width="100" height="290" as="geometry" />
        </mxCell>
        <mxCell id="uAjwzZl9WmDg_dWlWofx-3" style="edgeStyle=orthogonalEdgeStyle;rounded=0;orthogonalLoop=1;jettySize=auto;html=1;" edge="1" parent="4vVZ5W4KXW4CrQefSzg9-1" source="4vVZ5W4KXW4CrQefSzg9-10" target="4vVZ5W4KXW4CrQefSzg9-6">
          <mxGeometry relative="1" as="geometry" />
        </mxCell>
        <mxCell id="4vVZ5W4KXW4CrQefSzg9-10" value="Data" style="rounded=0;whiteSpace=wrap;html=1;" vertex="1" parent="4vVZ5W4KXW4CrQefSzg9-1">
          <mxGeometry x="28" y="208" width="230" height="30" as="geometry" />
        </mxCell>
        <mxCell id="4vVZ5W4KXW4CrQefSzg9-11" value="Models" style="rounded=0;whiteSpace=wrap;html=1;" vertex="1" parent="4vVZ5W4KXW4CrQefSzg9-1">
          <mxGeometry x="28" y="168" width="230" height="30" as="geometry" />
        </mxCell>
        <mxCell id="4vVZ5W4KXW4CrQefSzg9-12" value="ViewModels" style="rounded=0;whiteSpace=wrap;html=1;" vertex="1" parent="4vVZ5W4KXW4CrQefSzg9-1">
          <mxGeometry x="28" y="248" width="230" height="30" as="geometry" />
        </mxCell>
        <mxCell id="4vVZ5W4KXW4CrQefSzg9-13" value="Services" style="rounded=0;whiteSpace=wrap;html=1;" vertex="1" parent="4vVZ5W4KXW4CrQefSzg9-1">
          <mxGeometry x="28" y="288" width="230" height="30" as="geometry" />
        </mxCell>
        <mxCell id="4vVZ5W4KXW4CrQefSzg9-21" value="Blazor" style="rounded=0;whiteSpace=wrap;html=1;" vertex="1" parent="4vVZ5W4KXW4CrQefSzg9-1">
          <mxGeometry x="-420" y="112" width="170" height="100" as="geometry" />
        </mxCell>
        <mxCell id="4vVZ5W4KXW4CrQefSzg9-22" value="React" style="rounded=0;whiteSpace=wrap;html=1;" vertex="1" parent="4vVZ5W4KXW4CrQefSzg9-1">
          <mxGeometry x="-420" y="240" width="170" height="100" as="geometry" />
        </mxCell>
        <mxCell id="4vVZ5W4KXW4CrQefSzg9-23" value="" style="endArrow=classic;startArrow=classic;html=1;rounded=0;exitX=1;exitY=0.5;exitDx=0;exitDy=0;entryX=0;entryY=0.5;entryDx=0;entryDy=0;" edge="1" parent="4vVZ5W4KXW4CrQefSzg9-1" source="4vVZ5W4KXW4CrQefSzg9-21">
          <mxGeometry width="50" height="50" relative="1" as="geometry">
            <mxPoint x="440" y="272" as="sourcePoint" />
            <mxPoint x="-120" y="225" as="targetPoint" />
          </mxGeometry>
        </mxCell>
        <mxCell id="4vVZ5W4KXW4CrQefSzg9-25" value="" style="endArrow=classic;startArrow=classic;html=1;rounded=0;exitX=1;exitY=0.5;exitDx=0;exitDy=0;entryX=0;entryY=0.5;entryDx=0;entryDy=0;" edge="1" parent="4vVZ5W4KXW4CrQefSzg9-1" source="4vVZ5W4KXW4CrQefSzg9-22">
          <mxGeometry width="50" height="50" relative="1" as="geometry">
            <mxPoint x="260" y="212" as="sourcePoint" />
            <mxPoint x="-120" y="225" as="targetPoint" />
          </mxGeometry>
        </mxCell>
        <mxCell id="uAjwzZl9WmDg_dWlWofx-0" value="ProcessaPagamento" style="rounded=0;whiteSpace=wrap;html=1;" vertex="1" parent="4vVZ5W4KXW4CrQefSzg9-1">
          <mxGeometry x="1050" y="90" width="270" height="70" as="geometry" />
        </mxCell>
        <mxCell id="uAjwzZl9WmDg_dWlWofx-1" value="EnviaEmailStatusCompra" style="rounded=0;whiteSpace=wrap;html=1;" vertex="1" parent="4vVZ5W4KXW4CrQefSzg9-1">
          <mxGeometry x="1050" y="198" width="270" height="70" as="geometry" />
        </mxCell>
        <mxCell id="uAjwzZl9WmDg_dWlWofx-2" value="EnviaEmailParaUsuarioSorteado" style="rounded=0;whiteSpace=wrap;html=1;" vertex="1" parent="4vVZ5W4KXW4CrQefSzg9-1">
          <mxGeometry x="1050" y="300" width="270" height="70" as="geometry" />
        </mxCell>
      </root>
    </mxGraphModel>
  </diagram>
</mxfile>
